<svg width="117" height="315" viewBox="0 0 117 315" fill="none" xmlns="http://www.w3.org/2000/svg">
<rect x="48.5" y="57.5" width="15" height="12" fill="#8E847B" stroke="black"/>
<path d="M84.5 287.5L84 265L70.5 266C70.3333 272 69.5 284.2 69.5 285C69.5 285.8 68.5 288.333 68 289C70 288.333 74.4 286 76 286C77.6 286 81.6667 288.667 83.5 290L84.5 287.5Z" fill="#1A1B1C" stroke="black" stroke-width="0.5"/>
<path d="M29 287.5L30 265L43 266C43.1667 272 44 284.2 44 285C44 285.8 45.5 288.333 46 289C44 288.333 39.1 286 37.5 286C35.9 286 31.8333 288.667 30 290L29 287.5Z" fill="#1A1B1C" stroke="black" stroke-width="0.5"/>
<path d="M34 201C33.2 201 26.8333 192.667 24.5 188L23.5 186.5L50.5 182C51.5 183.667 53.8 187.2 55 188C56.5 189 55 204.5 55 207C55 209 48 240.167 44.5 255.5C44.1667 258.5 43.5 264.6 43.5 265C43.5 265.5 43 266.5 42.5 267C42.1 267.4 40.3333 267.833 39.5 268H33C32.5 268 31.5 267 30.5 266C29.7 265.2 29.5 263.667 29.5 263C29.6667 246.333 30 212.8 30 212C30 211.2 33.6667 203 35.5 199C34.8333 200 34.8 201 34 201Z" fill="#7B6F63" stroke="black" stroke-width="0.5"/>
<path d="M79.6666 201C80.4666 201 86.8333 192.667 89.1666 188L90 186L65 167.5C64 169.167 59.2 185.7 58 186.5C56.5 187.5 58.6666 204.5 58.6666 207C58.6666 209 65.6666 240.167 69.1666 255.5C69.5 258.5 70.1666 264.6 70.1666 265C70.1666 265.5 70.6666 266.5 71.1666 267C71.5666 267.4 73.3333 267.833 74.1666 268H80.6666C81.1666 268 82.1666 267 83.1666 266C83.9666 265.2 84.1666 263.667 84.1666 263C84 246.333 83.6666 212.8 83.6666 212C83.6666 211.2 80 203 78.1666 199C78.8333 200 78.8666 201 79.6666 201Z" fill="#7B6F63" stroke="black" stroke-width="0.5"/>
<circle cx="55.5" cy="32.5" r="26" fill="#8E847B" stroke="black"/>
<path d="M52.5 138H84.5C90.3333 144.167 102 156.7 102 157.5C102 158.5 109.5 167 109.5 168C109.5 169 116.5 180 116 181C115.5 182 110 187.5 109.5 187C109 186.5 100.5 175.5 100.5 175C100.5 174.6 95.1666 164.833 92.5 160C96.5 170.333 104 191.1 102 191.5C99.5 192 73 174.5 75 173.5C76.6 172.7 68.3333 170.5 64 169.5L59.5 182L26 186.5C25 187.5 22.8 189.5 22 189.5C21.2 189.5 17 189.167 15 189C14.879 184.887 14.7756 177.843 15.0338 174.441C13.8058 176.377 13 177.746 13 178C13 178.8 10 187 8.5 191L1 189.5C1.66667 183.833 3.3 172.5 4.5 172.5C6 172.5 19.5 150 22 153C24 155.4 24.8333 144.667 25 139L52.5 138Z" fill="#1D2F43" stroke="black" stroke-width="0.5"/>
<path d="M52.5 183C54 174.667 57.5 158 59.5 158" stroke="black" stroke-width="0.5"/>
<path d="M55 171C51.3333 166.333 43.2 157 40 157" stroke="black" stroke-width="0.5"/>
<path d="M26 186.5C27 181.167 29.2 170.5 30 170.5" stroke="black" stroke-width="0.5"/>
<rect x="36.6124" y="163.855" width="8.6649" height="29.5426" rx="4.33245" transform="rotate(-15 36.6124 163.855)" fill="#7F766B" stroke="black"/>
<rect x="-0.612372" y="0.353553" width="8.6649" height="29.5426" rx="4.33245" transform="matrix(-0.965926 -0.258819 -0.258819 0.965926 75.1282 162.355)" fill="#7F766B" stroke="black"/>
<path d="M83.6988 1.05112C80.709 0.507525 75.0919 4.44856 73.8462 5.80754L76.9039 8.52549C77.3569 8.07249 78.7385 7.65898 80.6411 7.11539C82.5436 6.5718 85.3974 31.5769 87.7756 29.8782C88.4551 26.8205 86.6885 1.5947 83.6988 1.05112Z" fill="#313230" stroke="black"/>
<path d="M33.077 19.3462L29.6796 39.391C28.6603 31.2372 30.359 14.7256 30.359 13.9103C30.359 12.891 33.7565 6.77565 39.5321 5.41667C45.3078 4.0577 53.1219 5.41667 54.4808 5.41667C55.8398 5.41667 59.577 6.4359 60.5962 6.77565C61.6155 7.11539 61.2757 26.8205 60.5962 28.5192C59.9167 30.218 51.4231 29.1987 51.0834 28.5192C50.8116 27.9757 49.8377 19.2329 49.3847 14.9295C49.6112 19.1197 49.9283 27.7039 49.3847 28.5192C48.7052 29.5385 42.2501 28.859 39.5321 28.5192C36.8142 28.1795 40.5514 11.8718 37.8334 14.9295C35.659 17.3757 33.8697 19.2329 33.077 19.3462Z" fill="#313230" stroke="black"/>
<path d="M78.6027 19.3461L82.3036 39.6553C83.3229 31.5014 80.3014 15.7449 80.3014 14.9295C80.3014 13.9102 78.2267 7.03987 72.4511 5.68089C66.6754 4.32192 58.8613 5.68089 57.5024 5.68089C56.1434 5.68089 56.1796 5.34115 55.1604 5.68089C54.1411 6.02064 50.0642 26.4807 50.7437 28.1795C51.4232 29.8782 60.5601 29.4629 60.8998 28.7835C61.1716 28.2399 62.1455 19.4971 62.5985 15.1937C62.372 19.3839 62.0549 27.9681 62.5985 28.7835C63.278 29.8027 69.7331 29.1232 72.4511 28.7835C75.169 28.4437 71.4318 12.136 74.1498 15.1937C76.3242 17.6399 77.81 19.2329 78.6027 19.3461Z" fill="#313230" stroke="black"/>
<rect x="50.7436" y="5.75641" width="4.75641" height="20.3846" fill="#313230"/>
<path d="M67.5 137L69 68L56 69.5L44 68L46 137H67.5Z" fill="#8F8E8F" stroke="black" stroke-width="0.5"/>
<path d="M63.6637 64.3871C64 63.5 64.479 62.8226 64 62.5V61C64.1597 61 64.8133 61.0968 65.5797 61.4839C66.5377 61.9677 67.4957 66.3226 67.9746 67.7742C68.3578 68.9355 64.3024 73.7419 62.2268 76L56 69.7097C58.2353 68.2581 63.2776 65.4057 63.6637 64.3871Z" fill="#8A8B8C" stroke="black" stroke-width="0.5"/>
<path d="M48.3363 64.3871C47.5699 63.6129 47.521 62.8226 48 62.5V61C47.8403 61 47.1867 61.0968 46.4203 61.4839C45.4623 61.9677 44.5043 66.3226 44.0254 67.7742C43.6422 68.9355 47.6976 73.7419 49.7732 76L56 69.7097C53.7647 68.2581 49.1026 65.1613 48.3363 64.3871Z" fill="#8A8B8C" stroke="black" stroke-width="0.5"/>
<path d="M65.5 80C66 79 68.5 73 68.5 69V68.5V68H69.5H70.5L83.5 74C86.1667 75.8333 91.6 79.5 92 79.5C92.4 79.5 93.5 93.1667 94 100L95 118C94.5 124.167 93.5 136.8 93.5 138C93.5 139.5 92 143 91.5 145C91.1 146.6 82.6667 161.333 78.5 168.5C77.5 166.833 75.3 163.1 74.5 161.5C73.7 159.9 67.1667 161.167 64 162L69 144V142.5H61.5L60 90C61.6667 87 65.1 80.8 65.5 80Z" fill="#8E8B70" stroke="black" stroke-width="0.5"/>
<path d="M74 128.5C74.3333 128 75.6 127.285 78 126.085C80.4 124.885 81 124.918 81 125.085" stroke="black" stroke-width="0.5"/>
<path d="M69 142.5C71.5 135.833 76.5 121.7 76.5 120.5C76.5 119.3 81.5 95.3333 84 83.5" stroke="black" stroke-width="0.5"/>
<path d="M61 168L64 162.5C64 161 73.5 161 74 161C74.4 161 77.1667 166 78.5 168.5L77 172.5C76.5 173.333 75.3 175 74.5 175C73.7 175 71.8333 171.667 71 170C70.1667 169.5 68.4 168.4 68 168C67.5 167.5 62 169.5 61.5 169C61.1 168.6 61 168.167 61 168Z" fill="#8E8B70" stroke="black" stroke-width="0.5"/>
<path d="M46.5 80C46 79 43.5 73 43.5 69V68.5V68H41.5L28.5 74C25.8333 75.8333 20.4 79.5 20 79.5C19.6 79.5 18.5 93.1667 18 100L17 118C17.5 124.167 18.5 136.8 18.5 138C18.5 139.5 20 143 20.5 145C20.9 146.6 29.3333 161.333 33.5 168.5C34.5 166.833 36.7 163.1 37.5 161.5C38.3 159.9 44.8333 161.167 48 162L43 144V142.5H50.5L52 90C50.3333 87 46.9 80.8 46.5 80Z" fill="#8E8B70" stroke="black" stroke-width="0.5"/>
<path d="M38 128.5C37.6667 128 36.4 127.285 34 126.085C31.6 124.885 31 124.918 31 125.085" stroke="black" stroke-width="0.5"/>
<path d="M43 142.5C40.5 135.833 35.5 121.7 35.5 120.5C35.5 119.3 30.5 95.3333 28 83.5" stroke="black" stroke-width="0.5"/>
<path d="M51 168L48 162.5C48 161 38.5 161 38 161C37.6 161 34.8333 166 33.5 168.5L35 172.5C35.5 173.333 36.7 175 37.5 175C38.3 175 40.1667 171.667 41 170C41.8333 169.5 43.6 168.4 44 168C44.5 167.5 50 169.5 50.5 169C50.9 168.6 51 168.167 51 168Z" fill="#8E8B70" stroke="black" stroke-width="0.5"/>
<path d="M27.5 284.5C27.9 283.3 29 281.667 29.5 281C29.1667 283.833 28.7 289.2 29.5 288C30.5 286.5 38 286 39.5 286C40.7 286 44.6667 288.333 46.5 289.5C48.8333 294.333 53.6 304.2 54 305C54.5 306 52 311.5 52 312.5C52 313.5 45 314.5 43 314.5C41 314.5 32 312.5 31.5 312.5C31.1 312.5 27 308.167 25 306C25.6667 299.333 27.1 285.7 27.5 284.5Z" fill="#192322" stroke="black" stroke-width="0.5"/>
<path d="M37.5 291.5C41.1 291.5 46 292.167 48 292.5L46.5 289.5L39.5 286C38.7 285.6 33.8333 286.833 31.5 287.5V292.5C32 292.167 33.9 291.5 37.5 291.5Z" fill="#1A2322" stroke="black" stroke-width="0.5"/>
<path d="M31 287.5L31.5 288V292.5L29 294V288L31 287.5Z" fill="#C4C4C4" stroke="black" stroke-width="0.5"/>
<path d="M86.5662 284.5C86.1662 283.3 85.0662 281.667 84.5662 281C84.8995 283.833 85.3662 289.2 84.5662 288C83.5662 286.5 76.0662 286 74.5662 286C73.3662 286 69.3995 288.333 67.5662 289.5C65.2328 294.333 60.4662 304.2 60.0662 305C59.5662 306 62.0662 311.5 62.0662 312.5C62.0662 313.5 69.0662 314.5 71.0662 314.5C73.0662 314.5 82.0662 312.5 82.5662 312.5C82.9662 312.5 87.0662 308.167 89.0662 306C88.3995 299.333 86.9662 285.7 86.5662 284.5Z" fill="#192322" stroke="black" stroke-width="0.5"/>
<path d="M76.5662 291.5C72.9662 291.5 68.0662 292.167 66.0662 292.5L67.5662 289.5L74.5662 286C75.3662 285.6 80.2328 286.833 82.5662 287.5V292.5C82.0662 292.167 80.1662 291.5 76.5662 291.5Z" fill="#1A2322" stroke="black" stroke-width="0.5"/>
<path d="M83.0662 287.5L82.5662 288V292.5L85.0662 294V288L83.0662 287.5Z" fill="#C4C4C4" stroke="black" stroke-width="0.5"/>
</svg>
